# xmcd
#
# Track frame offsets:
#   150
#   16832
#   33877
#   50565
#   64162
#   77500
#   96630
#   115055
#   129125
#   150035
#   166570
#   180652
#
# Disc length: 2608 seconds
#
# Revision: 0
# Processed by: cddbd v1.5.2PL0 Copyright (c) Steve Scherf et al.
# Submitted via: uFREEDB 1.6.0
#
DISCID=7f0a2e0c
DTITLE=Expense of Spirit - Rooms: Transient and Permanent
DYEAR=1900
DGENRE=Blues
TTITLE0=my end of town
TTITLE1=jenny
TTITLE2=path i choose
TTITLE3=end of me
TTITLE4=mouse
TTITLE5=home free
TTITLE6=garden grow
TTITLE7=accident
TTITLE8=express
TTITLE9=met a girl
TTITLE10=twisted world
TTITLE11=dead cigarettes
EXTD=Made in Canada
EXTT0=
EXTT1=
EXTT2=
EXTT3=
EXTT4=
EXTT5=
EXTT6=
EXTT7=
EXTT8=
EXTT9=
EXTT10=
EXTT11=
PLAYORDER=
